<?xml version="1.0" standalone="no"?>
<!DOCTYPE svg PUBLIC "-//W3C//DTD SVG 20010904//EN"
 "http://www.w3.org/TR/2001/REC-SVG-20010904/DTD/svg10.dtd">
<svg version="1.0" xmlns="http://www.w3.org/2000/svg"
 width="924.000000pt" height="282.000000pt" viewBox="0 0 924.000000 282.000000"
 preserveAspectRatio="xMidYMid meet">

<g transform="translate(0.000000,282.000000) scale(0.100000,-0.100000)"
fill="#000000" stroke="none">
<path d="M1087 2181 c-30 -97 -33 -130 -14 -132 13 -2 115 -6 186 -8 42 -1 43
-2 38 -28 -5 -27 -27 -110 -62 -238 -9 -33 -29 -109 -45 -170 -42 -164 -107
-408 -136 -515 -38 -141 -42 -158 -36 -164 3 -4 56 -6 119 -6 130 0 116 -11
152 123 11 40 33 119 51 175 17 57 37 127 45 155 7 29 34 122 60 207 25 85 53
180 61 210 8 30 18 66 23 80 5 14 19 58 31 98 21 70 22 72 53 72 18 0 466 1
996 3 l964 2 31 58 c35 66 99 135 133 143 13 4 23 10 23 15 0 5 -555 9 -1323
9 l-1323 0 -27 -89z"/>
<path d="M3972 2255 c-217 -53 -356 -240 -338 -452 10 -119 49 -179 184 -280
117 -88 143 -160 108 -296 -47 -178 -168 -289 -383 -349 l-78 -22 -1383 -3
c-1296 -3 -1383 -5 -1388 -21 -3 -9 -9 -26 -14 -37 -21 -54 -62 -216 -57 -228
4 -12 181 -14 1199 -10 1448 4 1668 7 1733 23 261 65 498 218 619 400 89 132
116 213 116 340 0 101 -13 157 -53 236 -31 61 -117 152 -177 189 -81 49 -100
73 -100 125 0 40 5 52 34 81 18 19 51 40 73 47 31 9 556 12 2244 12 1212 0
2209 4 2214 8 6 4 23 48 38 97 16 50 33 98 38 107 5 10 9 25 9 33 0 13 -252
15 -2292 14 -1836 -1 -2304 -4 -2346 -14z m493 -110 c0 -19 -8 -20 -102 -23
-95 -2 -103 -1 -103 16 0 10 3 22 7 26 4 4 50 5 103 4 87 -3 95 -5 95 -23z
m344 16 c8 -5 11 -16 8 -25 -5 -13 -24 -16 -107 -16 -92 0 -100 2 -100 19 0
11 6 22 13 24 21 9 171 7 186 -2z m345 3 c9 -3 16 -15 16 -25 0 -17 -9 -19
-99 -19 -100 0 -118 6 -107 35 4 12 25 15 90 15 46 0 91 -3 100 -6z m350 0 c9
-3 16 -15 16 -25 0 -17 -9 -19 -105 -19 -95 0 -105 2 -105 18 0 10 3 22 7 25
8 9 166 9 187 1z m361 -19 c0 -19 -8 -20 -102 -23 -95 -2 -103 -1 -103 16 0
10 3 22 7 26 4 4 50 5 103 4 87 -3 95 -5 95 -23z m344 16 c8 -5 11 -16 8 -25
-5 -13 -23 -16 -101 -16 -95 0 -113 7 -102 35 4 12 26 15 93 15 48 0 94 -4
102 -9z m358 -2 c6 -6 9 -18 6 -25 -4 -11 -29 -14 -103 -14 -99 0 -117 6 -106
35 7 19 185 22 203 4z m351 3 c7 -5 10 -16 6 -25 -5 -14 -22 -17 -110 -17 -94
0 -104 2 -104 18 0 10 3 22 7 25 9 10 185 8 201 -1z m351 -1 c8 -5 11 -16 8
-25 -5 -13 -24 -16 -112 -16 -95 0 -105 2 -105 18 0 10 3 22 7 25 10 10 186 8
202 -2z m348 -2 c6 -6 9 -18 6 -25 -4 -11 -30 -14 -109 -14 -94 0 -104 2 -104
18 0 10 3 22 7 25 11 12 188 8 200 -4z m352 2 c8 -5 11 -16 8 -25 -5 -13 -24
-16 -112 -16 -95 0 -105 2 -105 18 0 10 3 22 7 25 10 10 186 8 202 -2z m350 0
c8 -5 11 -16 8 -25 -5 -13 -24 -16 -112 -16 -95 0 -105 2 -105 18 0 10 3 22 7
25 10 10 186 8 202 -2z m-4243 -16 c9 -22 -14 -45 -44 -45 -13 0 -49 -14 -79
-31 -51 -29 -56 -30 -71 -15 -15 15 -15 18 4 36 24 24 129 69 162 70 12 0 25
-7 28 -15z m-236 -260 c0 -29 7 -72 15 -96 18 -51 13 -72 -17 -67 -26 4 -38
40 -45 136 -6 77 -1 92 26 85 18 -5 21 -13 21 -58z m167 -295 c44 -40 85 -107
81 -133 -5 -37 -33 -32 -53 9 -9 20 -35 57 -57 80 -25 27 -38 50 -34 59 8 22
27 18 63 -15z m131 -310 c5 -73 -24 -170 -50 -170 -27 0 -31 20 -13 69 8 24
15 67 15 96 0 56 5 67 30 63 11 -2 16 -18 18 -58z m-100 -253 c14 -17 -62
-117 -116 -151 -34 -22 -38 -22 -45 -7 -7 14 8 35 65 94 40 42 76 76 79 77 4
0 11 -6 17 -13z m-268 -235 c0 -17 -78 -72 -103 -72 -7 0 -17 -4 -22 -9 -6 -5
-28 -11 -50 -13 -34 -3 -40 0 -43 18 -3 18 4 23 34 28 38 8 43 10 109 44 49
26 75 28 75 4z m-2790 -92 c0 -19 -7 -20 -105 -20 -98 0 -105 1 -105 20 0 19
7 20 105 20 98 0 105 -1 105 -20z m355 0 c0 -12 -18 -15 -105 -15 -93 0 -105
2 -108 18 -3 16 5 17 105 15 88 -2 108 -6 108 -18z m350 0 c0 -12 -18 -15
-105 -15 -93 0 -105 2 -108 18 -3 16 5 17 105 15 88 -2 108 -6 108 -18z m350
0 c0 -12 -19 -16 -99 -18 -97 -3 -126 4 -111 27 4 8 41 11 108 9 83 -2 102 -6
102 -18z m350 0 c0 -12 -19 -16 -99 -18 -97 -3 -126 4 -111 27 4 8 41 11 108
9 83 -2 102 -6 102 -18z m350 0 c0 -12 -19 -16 -99 -18 -97 -3 -126 4 -111 27
4 8 41 11 108 9 83 -2 102 -6 102 -18z m355 0 c0 -20 -5 -21 -107 -18 -93 3
-108 5 -111 21 -3 15 7 17 107 17 105 0 111 -1 111 -20z m350 0 c0 -19 -7 -20
-110 -20 -103 0 -110 1 -110 20 0 19 7 20 110 20 103 0 110 -1 110 -20z"/>
<path d="M7299 1948 c-7 -12 -16 -36 -20 -53 -4 -16 -28 -100 -54 -185 -26
-85 -51 -171 -56 -190 -18 -65 -27 -95 -59 -200 -17 -58 -45 -150 -61 -205
-16 -55 -36 -123 -45 -152 -9 -29 -13 -57 -9 -63 4 -6 49 -10 110 -10 89 0
106 3 113 18 9 17 37 106 81 265 6 20 15 52 20 70 5 17 26 86 46 152 20 66 41
135 46 153 10 35 25 89 39 137 4 17 22 75 38 130 17 55 32 111 34 125 l3 25
-107 3 c-102 3 -107 2 -119 -20z"/>
<path d="M4744 1879 c-95 -36 -153 -120 -232 -339 -11 -30 -40 -109 -65 -175
-25 -66 -66 -176 -92 -245 -26 -69 -50 -134 -55 -145 -35 -84 -112 -294 -117
-317 -3 -16 -10 -31 -14 -34 -5 -3 -9 -16 -9 -30 l0 -25 136 3 137 3 161 487
c88 269 165 488 170 488 5 0 6 -27 2 -62 -4 -35 -11 -101 -16 -148 -5 -47 -14
-121 -19 -165 -59 -472 -64 -533 -51 -565 20 -47 59 -66 132 -62 43 3 118 84
160 172 36 75 51 108 135 295 25 55 58 128 74 163 16 35 29 65 29 66 0 2 24
55 53 117 30 63 60 129 68 147 15 35 29 42 29 14 0 -10 -18 -95 -40 -188 -48
-201 -63 -263 -89 -386 -5 -24 -25 -110 -45 -193 -19 -82 -36 -158 -36 -167 0
-17 75 -18 1440 -18 1361 0 1440 1 1449 18 20 37 71 203 66 212 -4 6 -386 11
-1023 11 -559 1 -1150 5 -1312 8 -287 6 -295 7 -293 26 4 43 42 249 68 365 8
36 24 117 35 180 12 63 25 131 29 150 35 139 39 248 12 295 -36 63 -130 82
-228 46 -100 -37 -155 -101 -222 -261 -13 -30 -29 -70 -37 -87 -8 -18 -20 -48
-28 -65 -78 -184 -101 -239 -116 -273 -9 -22 -25 -59 -35 -82 -20 -47 -35 -56
-35 -20 0 12 14 114 31 227 47 319 57 429 43 482 -15 60 -19 66 -61 83 -48 20
-128 18 -189 -6z"/>
<path d="M2430 1700 c-70 -13 -141 -40 -187 -71 -23 -16 -44 -29 -47 -29 -13
0 -70 -58 -113 -113 -66 -86 -101 -170 -109 -265 -11 -134 33 -230 130 -282
74 -41 271 -24 295 25 13 26 51 153 51 170 0 11 -15 13 -68 8 -142 -12 -198
68 -138 199 34 75 79 112 166 135 41 12 110 -5 141 -33 35 -32 16 -186 -41
-329 -4 -11 -13 -40 -20 -65 -7 -25 -17 -55 -22 -67 -23 -47 -8 -54 114 -51
l112 3 22 70 c12 39 32 104 44 145 12 41 33 108 46 149 17 51 24 97 24 151 0
88 -15 127 -68 176 -63 58 -224 94 -332 74z"/>
<path d="M3272 1695 c-143 -40 -258 -160 -311 -325 -31 -97 -90 -290 -102
-335 -6 -22 -16 -50 -21 -62 -6 -11 -7 -26 -4 -32 8 -13 194 -15 213 -3 12 8
24 42 62 172 50 171 96 306 111 321 23 25 56 39 89 39 57 0 69 -62 32 -170 -5
-14 -14 -43 -20 -65 -6 -22 -27 -91 -47 -152 -19 -62 -34 -120 -32 -130 3 -16
17 -18 105 -21 120 -3 113 -10 161 158 6 19 25 82 42 140 52 175 60 209 60
258 0 83 -32 144 -98 191 -43 30 -162 38 -240 16z"/>
<path d="M1599 1647 c-9 -23 -22 -62 -29 -87 -7 -25 -20 -70 -30 -100 -10 -30
-23 -75 -30 -100 -7 -25 -21 -70 -30 -100 -10 -30 -26 -82 -35 -115 -10 -33
-27 -88 -37 -123 -29 -90 -27 -92 91 -92 104 0 131 5 131 23 0 20 104 356 127
409 27 63 66 87 170 103 42 7 43 8 59 63 10 32 23 76 31 100 18 57 11 65 -46
57 -58 -8 -100 -27 -133 -60 -30 -29 -43 -20 -28 20 6 15 8 31 4 36 -3 5 -49
9 -102 9 l-97 0 -16 -43z"/>
<path d="M6075 1645 c-95 -25 -118 -35 -179 -74 -124 -81 -215 -211 -245 -350
-31 -147 14 -265 124 -324 33 -18 55 -22 125 -21 53 1 99 7 120 17 32 14 38
23 58 89 35 121 39 113 -49 113 -86 0 -110 13 -136 73 -11 26 -11 41 -2 75 33
124 101 181 218 181 60 1 65 -1 92 -34 35 -42 37 -75 9 -168 -11 -37 -24 -80
-29 -97 -5 -16 -21 -69 -36 -118 -15 -48 -24 -94 -21 -102 4 -12 26 -15 103
-15 54 0 103 4 109 8 6 4 19 34 29 67 10 33 26 85 36 115 58 180 82 293 74
358 -12 113 -87 178 -240 208 -82 16 -93 16 -160 -1z"/>
<path d="M7855 1645 c-152 -37 -296 -150 -359 -279 -56 -115 -66 -147 -66
-212 0 -69 32 -159 73 -202 113 -122 326 -104 516 43 61 46 151 144 151 163 0
11 -107 82 -125 82 -6 0 -30 -21 -55 -46 -67 -69 -133 -104 -198 -104 -48 0
-58 4 -88 34 -30 30 -34 40 -34 89 0 133 135 273 245 253 20 -4 35 -13 35 -21
0 -8 -48 -42 -106 -76 -92 -54 -105 -64 -99 -83 3 -11 10 -36 15 -55 18 -72
18 -72 240 62 229 138 225 132 180 221 -41 78 -93 113 -198 135 -61 13 -61 13
-127 -4z"/>
<path d="M6688 1629 c-10 -5 -18 -17 -18 -25 0 -8 -9 -43 -19 -77 -11 -34 -31
-105 -46 -157 -15 -52 -35 -120 -45 -150 -10 -30 -27 -89 -39 -130 -12 -41
-29 -97 -37 -124 -23 -73 -20 -76 94 -76 107 0 124 7 135 60 11 55 97 332 113
365 25 54 64 81 138 95 l65 12 17 57 c9 31 23 75 30 99 8 24 12 48 9 53 -16
25 -119 -5 -178 -52 l-39 -31 7 46 7 46 -88 0 c-49 0 -97 -5 -106 -11z"/>
</g>
</svg>
